<svg width="36" height="36" viewBox="0 0 36 36" fill="none" xmlns="http://www.w3.org/2000/svg">
    <path d="M10.9528 0.183594C9.07199 0.183594 7.62695 1.39377 7.62695 3.52002V28.7409C7.62695 30.8672 9.06713 32.0773 10.9528 32.0773C12.8385 32.0773 14.2787 30.8672 14.2787 28.7409V3.52002C14.2787 1.39377 12.8369 0.183594 10.9528 0.183594Z" fill="#24EAA4"/>
    <path d="M18.4911 16.2966C20.333 16.2966 21.7424 15.1137 21.7424 13.0341V10.9448C21.7424 8.86513 20.333 7.68066 18.4911 7.68066C16.6491 7.68066 15.2397 8.86513 15.2397 10.9448V13.0341C15.2397 15.1073 16.6475 16.2966 18.4911 16.2966Z" fill="#24EAA4"/>
    <path d="M21.8168 30.355C21.8168 28.2287 20.375 27.0186 18.4909 27.0186C16.6068 27.0186 15.165 28.2287 15.165 30.355V32.4812C15.165 34.6075 16.6068 35.8177 18.4909 35.8177C20.375 35.8177 21.8168 34.6075 21.8168 32.4812V30.355Z" fill="#24EAA4"/>
    <path d="M3.41345 7.68066C1.57151 7.68066 0.162109 8.86513 0.162109 10.9448V13.0341C0.162109 15.1073 1.57151 16.2966 3.41345 16.2966C5.25539 16.2966 6.66641 15.1073 6.66641 13.0341V10.9448C6.66641 8.86513 5.25701 7.68066 3.41345 7.68066Z" fill="#24EAA4"/>
    <path d="M22.7773 13.0341C22.7773 15.1137 24.1867 16.2966 26.0287 16.2966C27.8706 16.2966 29.2816 15.1073 29.2816 13.0341V10.9448C29.2816 8.86513 27.8722 7.68066 26.0287 7.68066C24.1851 7.68066 22.7773 8.86513 22.7773 10.9448V13.0341Z" fill="#24EAA4"/>
    <path d="M29.3544 26.9829C29.3544 24.8567 27.9142 23.6465 26.0285 23.6465C24.1428 23.6465 22.7026 24.8567 22.7026 26.9829V29.1092C22.7026 31.2354 24.1444 32.444 26.0285 32.444C27.9126 32.444 29.3544 31.2354 29.3544 29.1092V26.9829Z" fill="#24EAA4"/>
</svg>